<?xml version="1.0" standalone="no"?><!DOCTYPE svg PUBLIC "-//W3C//DTD SVG 1.1//EN" "http://www.w3.org/Graphics/SVG/1.1/DTD/svg11.dtd"><svg t="1513237837524" class="icon" style="" viewBox="0 0 1024 1024" version="1.1" xmlns="http://www.w3.org/2000/svg" p-id="2306" xmlns:xlink="http://www.w3.org/1999/xlink" width="48" height="48"><defs><style type="text/css"></style></defs><path d="M972.8 460.8H563.2V51.2C563.2 22.9 540.3 0 512 0c-28.3 0-51.2 22.9-51.2 51.2v409.6H51.2C22.9 460.8 0 483.7 0 512c0 28.3 22.9 51.2 51.2 51.2h409.6v409.6c0 28.3 22.9 51.2 51.2 51.2 28.3 0 51.2-22.9 51.2-51.2V563.2h409.6c28.3 0 51.2-22.9 51.2-51.2 0-28.3-22.9-51.2-51.2-51.2z" p-id="2307" fill="#ffffff"></path></svg>