<?xml version="1.0" standalone="no"?><!DOCTYPE svg PUBLIC "-//W3C//DTD SVG 1.1//EN" "http://www.w3.org/Graphics/SVG/1.1/DTD/svg11.dtd"><svg t="1511358144147" class="icon" style="" viewBox="0 0 2194 1024" version="1.1" xmlns="http://www.w3.org/2000/svg" p-id="3294" xmlns:xlink="http://www.w3.org/1999/xlink" width="274.25" height="128"><defs><style type="text/css"></style></defs><path d="M1099.580952 49.39581c-534.308571 0-950.296381 128.463238-1011.614476 312.393142a18.383238 18.383238 0 0 1-1.024 2.584381c-0.585143 1.29219-58.09981 127.658667-29.45219 258.023619C92.745143 783.043048 469.967238 953.782857 1099.580952 953.782857c634.270476 0 1008.688762-169.691429 1038.921143-329.313524 24.917333-131.681524-43.349333-257.29219-44.056381-258.535619C1971.931429 147.017143 1665.024 49.39581 1099.580952 49.39581m0 953.782857C514.925714 1003.178667 56.32 847.481905 9.264762 633.002667c-30.96381-141.092571 25.35619-272.603429 32.304762-288.134096C111.908571 138.532571 536.673524 0 1099.580952 0c585.48419 0 905.679238 105.447619 1038.019048 341.918476 3.242667 5.851429 77.653333 142.750476 49.42019 291.742476-41.155048 217.575619-488.350476 369.517714-1087.439238 369.517715" fill="#ffffff" p-id="3295"></path><path d="M1099.337143 511.804952c-173.738667 0-467.821714-25.673143-467.821714-121.831619a24.673524 24.673524 0 1 1 49.371428 0c8.118857 24.84419 159.110095 72.411429 418.450286 72.411429 259.388952 0 410.331429-47.567238 418.57219-73.045333a24.380952 24.380952 0 0 1 24.624762-24.380953c13.653333 0 24.697905 11.361524 24.697905 25.014857 0 96.158476-294.083048 121.831619-467.894857 121.831619M87.600762 570.026667a24.624762 24.624762 0 0 1-18.212572-7.996953c-36.522667-39.740952-55.02781-81.92-55.027809-125.44a24.673524 24.673524 0 1 1 49.371429 0c0 30.72 14.140952 61.70819 42.032761 92.013715a24.624762 24.624762 0 0 1-1.462857 34.864761 24.624762 24.624762 0 0 1-16.700952 6.582858M598.601143 780.580571a23.454476 23.454476 0 0 1-4.486095-0.414476C412.281905 747.032381 262.339048 696.612571 160.597333 634.392381a24.697905 24.697905 0 0 1 25.746286-42.154667c96.646095 59.026286 240.737524 107.27619 416.670476 139.385905a24.673524 24.673524 0 0 1-4.412952 48.956952M1044.431238 822.467048h-0.365714c-130.779429-2.096762-257.462857-12.214857-376.588191-30.037334a24.746667 24.746667 0 0 1-20.772571-28.135619 24.576 24.576 0 0 1 28.086857-20.74819c117.00419 17.554286 241.468952 27.501714 370.054095 29.500952a24.746667 24.746667 0 0 1-0.414476 49.420191M1162.605714 822.076952a24.697905 24.697905 0 1 1-0.487619-49.395809c245.199238-5.412571 477.744762-40.521143 654.799238-98.913524a24.697905 24.697905 0 0 1 15.457524 46.933333c-181.638095 59.830857-419.254857 95.841524-669.184 101.376h-0.585143zM1970.371048 662.381714c-8.94781 0-17.67619-4.949333-22.016-13.531428a24.673524 24.673524 0 0 1 10.727619-33.182476c75.093333-38.4 164.59581-100.62019 164.595809-179.078096a24.649143 24.649143 0 1 1 49.371429 0c0 81.846857-66.194286 158.96381-191.439238 223.085715a25.234286 25.234286 0 0 1-11.215238 2.681904" fill="#ffffff" p-id="3296"></path><path d="M1364.284952 492.251429c-29.232762 0-55.491048-10.044952-85.894095-21.699048-42.422857-16.188952-95.158857-36.376381-179.053714-36.376381-87.405714 0-143.896381 21.284571-189.196191 38.4-28.013714 10.556952-52.224 19.69981-75.727238 19.69981h-0.073143a24.697905 24.697905 0 1 1 0.024381-49.39581h0.048762c14.482286 0 33.792-7.314286 58.294857-16.505905 46.494476-17.554286 110.201905-41.569524 206.628572-41.569524 93.062095 0 152.941714 22.918095 196.681143 39.66781 26.89219 10.288762 48.128 18.407619 68.266666 18.407619h0.097524a24.697905 24.697905 0 0 1 0 49.39581h-0.097524zM637.903238 914.748952a68.510476 68.510476 0 0 1-68.412952-68.36419c0-19.846095 5.510095-35.57181 9.923047-48.225524 6.753524-19.21219 5.851429-20.187429 0.950857-25.6a24.697905 24.697905 0 1 1 36.473905-33.304381c25.697524 28.208762 16.164571 55.393524 9.191619 75.264-3.657143 10.50819-7.143619 20.431238-7.143619 31.865905a19.041524 19.041524 0 0 0 38.034286 0c0-7.899429-1.828571-12.653714-4.583619-19.846095-5.193143-13.507048-11.629714-30.329905-5.461333-63.122286a24.673524 24.673524 0 1 1 48.518095 9.094095c-3.559619 19.090286-0.926476 25.941333 3.072 36.352 3.486476 9.142857 7.850667 20.455619 7.850666 37.522286a68.510476 68.510476 0 0 1-68.412952 68.36419M1827.937524 720.310857a24.624762 24.624762 0 0 1-24.161524-19.821714c-7.850667-38.765714 10.922667-88.966095 61.903238-109.689905 48.566857-19.846095 101.059048-3.779048 122.148572 37.302857a24.697905 24.697905 0 0 1-43.910096 22.601143c-8.045714-15.652571-32.52419-25.185524-59.587047-14.189714-27.355429 11.142095-35.864381 35.937524-32.109715 54.198857a24.81981 24.81981 0 0 1-24.283428 29.598476M1104.579048 890.368c-55.393524 0-97.206857-28.94019-97.206858-67.388952 0-15.652571 7.387429-30.744381 20.821334-42.496a24.697905 24.697905 0 0 1 32.475428 37.229714c-2.82819 2.462476-3.900952 4.559238-3.900952 5.266286 0 4.486095 16.944762 18.041905 47.786667 18.041904 30.915048 0 47.908571-13.55581 47.908571-18.041904 0-0.707048-1.243429-3.169524-5.022476-6.119619a24.697905 24.697905 0 1 1 30.451809-38.912c15.457524 12.092952 23.966476 28.062476 23.966477 45.031619 0 38.448762-41.813333 67.388952-97.28 67.388952M173.397333 638.073905a24.624762 24.624762 0 0 1-19.797333-39.424c0.365714-0.560762 0.731429-1.072762 1.048381-1.609143 6.631619-10.898286-0.24381-27.769905-15.067429-36.742095-13.409524-8.143238-26.331429-8.289524-28.891428-6.582857a24.624762 24.624762 0 1 1-46.299429-16.822858 49.347048 49.347048 0 0 1 30.476191-29.988571c24.137143-8.508952 52.126476 0.170667 70.314666 11.142095 38.326857 23.259429 52.565333 70.168381 31.695238 104.618667a65.438476 65.438476 0 0 1-3.632761 5.412571c-4.85181 6.534095-12.312381 9.99619-19.846096 9.996191M476.988952 520.996571c-5.729524 0-11.459048-1.999238-16.164571-6.046476l-26.989714-23.405714a24.722286 24.722286 0 0 1-2.535619-34.864762 24.771048 24.771048 0 0 1 34.864762-2.462476l27.014095 23.405714a24.722286 24.722286 0 0 1-16.188953 43.373714M315.318857 355.05981a24.697905 24.697905 0 0 1-23.503238-32.280381l10.971429-34.011429a24.722286 24.722286 0 0 1 47.006476 15.189333l-10.971429 33.987048a24.697905 24.697905 0 0 1-23.503238 17.115429M480.402286 411.428571a24.624762 24.624762 0 0 1-19.017143-8.947809l-22.796191-27.550476a24.673524 24.673524 0 1 1 38.009905-31.524572l22.820572 27.550476a24.722286 24.722286 0 0 1-19.017143 40.472381M985.380571 654.116571c-9.118476 0-17.895619-5.046857-22.211047-13.775238l-15.750095-32.182857a24.673524 24.673524 0 1 1 44.373333-21.699047l15.725714 32.109714a24.649143 24.649143 0 0 1-22.137905 35.547428M1422.60419 647.558095c-4.510476 0-9.020952-1.219048-13.116952-3.754666l-30.256762-18.992762a24.649143 24.649143 0 1 1 26.160762-41.862096l30.329905 19.017143a24.624762 24.624762 0 0 1-13.116953 45.592381M1276.220952 693.784381c-12.53181 0-23.235048-9.435429-24.527238-22.186667l-3.657143-35.571809a24.673524 24.673524 0 1 1 49.127619-5.022476l3.632762 35.59619a24.673524 24.673524 0 0 1-24.576 27.184762M1488.164571 292.156952a24.746667 24.746667 0 0 1-23.552-32.304762l10.99581-34.011428a24.746667 24.746667 0 0 1 47.055238 15.189333L1511.619048 275.017143a24.722286 24.722286 0 0 1-23.478858 17.115428M1755.964952 451.193905a24.697905 24.697905 0 0 1-23.527619-32.304762l10.971429-34.011429a24.697905 24.697905 0 1 1 46.982095 15.164953l-10.922667 34.035809c-3.413333 10.48381-13.092571 17.115429-23.527619 17.115429M1881.478095 300.27581c-3.779048 0-7.631238-0.877714-11.264-2.681905l-31.841524-16.310857a24.697905 24.697905 0 0 1 22.479239-43.983238l31.841523 16.286476a24.673524 24.673524 0 0 1-11.215238 46.689524M1909.857524 421.278476a24.722286 24.722286 0 0 1-9.118476-47.640381l33.182476-13.238857a24.722286 24.722286 0 0 1 18.310095 45.909333l-33.255619 13.214477a24.429714 24.429714 0 0 1-9.118476 1.755428M1609.97181 594.992762c-9.264762 0-18.115048-5.217524-22.308572-14.140952l-15.36-32.256a24.722286 24.722286 0 0 1 44.617143-21.211429l15.36 32.304762a24.697905 24.697905 0 0 1-22.308571 35.303619" fill="#ffffff" p-id="3297"></path></svg>