<?xml version="1.0" standalone="no"?><!DOCTYPE svg PUBLIC "-//W3C//DTD SVG 1.1//EN" "http://www.w3.org/Graphics/SVG/1.1/DTD/svg11.dtd"><svg t="1511495851761" class="icon" style="" viewBox="0 0 1024 1024" version="1.1" xmlns="http://www.w3.org/2000/svg" p-id="1820" xmlns:xlink="http://www.w3.org/1999/xlink" width="48" height="48"><defs><style type="text/css"></style></defs><path d="M763.098112 523.58656c2.859008-4.979712 4.947968-10.464256 4.964352-16.646144l-0.016384-229.471232c0.033792-18.78528-15.225856-33.993728-33.978368-33.993728l-229.504 0.032768c-6.334464-0.032768-11.949056 2.20672-17.030144 5.214208-2.20672 1.002496-4.144128 2.64192-6.150144 4.145152-0.267264 0.268288-0.618496 0.367616-0.88576 0.635904-0.985088 0.800768-2.122752 1.235968-3.042304 2.171904L125.96224 607.352832c-11.51488 11.532288-13.08672 28.680192-3.47648 38.339584l243.760128 243.575808c9.609216 9.593856 26.740736 8.122368 38.289408-3.441664l351.509504-351.710208C759.20384 530.940928 761.460736 527.32928 763.098112 523.58656zM693.9904 438.784c-33.426432 33.426432-87.593984 33.426432-121.019392 0-33.426432-33.427456-33.426432-87.611392 0-121.003008 33.425408-33.426432 87.59296-33.426432 121.019392 0C727.415808 351.173632 727.415808 405.357568 693.9904 438.784z" p-id="1821" fill="#9e9e9e"></path><path d="M877.232128 346.996736c0.033792-17.248256-13.954048-31.187968-31.152128-31.187968l-30.885888 0 0 75.242496c22.378496 28.379136 22.378496 68.255744 0.016384 96.63488l0 24.434688c-0.016384 5.684224-1.938432 10.730496-4.545536 15.276032-1.519616 3.441664-3.575808 6.752256-6.467584 9.660416L481.951744 859.485184c-4.078592 4.079616-8.925184 6.351872-13.821952 7.656448l40.745984 40.712192c8.823808 8.792064 24.517632 7.453696 35.113984-3.1744l322.245632-322.429952c2.889728-2.90816 4.94592-6.217728 6.46656-9.660416 2.608128-4.545536 4.529152-9.591808 4.545536-15.276032L877.232128 346.996736z" p-id="1822" fill="#9e9e9e"></path><path d="M655.483904 341.881856c-5.014528-2.874368-10.829824-4.511744-17.032192-4.511744-18.902016 0-34.228224 15.309824-34.228224 34.228224 0 18.920448 15.326208 34.229248 34.228224 34.229248 18.904064 0 34.229248-15.3088 34.229248-34.229248C672.68096 358.895616 665.761792 347.798528 655.483904 341.881856z" p-id="1823" fill="#9e9e9e"></path><path d="M668.26752 375.341056c-3.124224-30.652416 2.807808-67.620864 18.936832-104.290304 33.174528-75.375616 106.996736-137.24672 151.53664-117.659648 44.539904 19.620864 42.93632 113.281024 9.759744 188.623872-5.881856 13.370368-12.700672 25.772032-20.205568 37.003264 11.815936 4.011008 22.797312 8.689664 32.406528 14.205952 6.985728-11.76576 13.604864-24.067072 19.403776-37.269504 46.16192-104.891392 33.308672-211.955712-28.679168-239.230976C789.438464 89.447424 701.77792 152.255488 655.617024 257.14688c-20.524032 46.629888-28.89728 93.292544-26.758144 133.43744C640.49152 384.433152 653.828096 379.385856 668.26752 375.341056z" p-id="1824" fill="#9e9e9e"></path></svg>