<?xml version="1.0" standalone="no"?><!DOCTYPE svg PUBLIC "-//W3C//DTD SVG 1.1//EN" "http://www.w3.org/Graphics/SVG/1.1/DTD/svg11.dtd"><svg t="1513076210250" class="icon" style="" viewBox="0 0 1047 1024" version="1.1" xmlns="http://www.w3.org/2000/svg" p-id="3833" xmlns:xlink="http://www.w3.org/1999/xlink" width="49.078125" height="48"><defs><style type="text/css"></style></defs><path d="M726.123025 1007.317171H314.770408a67.388075 67.388075 0 0 1-43.901027 16.68239H67.607629a67.388075 67.388075 0 0 1-67.60758-67.16857V453.944734a67.388075 67.388075 0 0 1 67.60758-66.949065h202.603237a67.607581 67.607581 0 0 1 49.60816 21.950513c41.92548-34.023295 153.653592-139.605264 153.653592-307.307184 0-100.09434 101.191866-100.53335 101.191866-100.533351s219.505132-30.950224 219.505131 234.650986a588.932268 588.932268 0 0 1-33.80379 150.800026h50.705685s236.407027-39.291419 236.407027 251.55288-82.753435 368.768621-320.696997 368.768622zM270.210866 487.529019a33.584285 33.584285 0 0 0-33.80379-33.584285H101.41142a33.584285 33.584285 0 0 0-33.803791 33.584285v435.937192a33.584285 33.584285 0 0 0 33.803791 33.584285h134.995656a33.584285 33.584285 0 0 0 33.80379-33.584285V487.529019z m557.104024-33.584285h-202.603236s101.191866-98.996814 101.191865-234.650986-96.582258-150.800025-134.995656-150.800025-50.705685 12.072782-50.705685 33.584285c0 250.894366-202.603237 385.670516-202.603237 385.670516v452.400077h405.425979c181.969754 0 236.407027-61.241932 236.407026-285.356672s-151.897551-201.286206-151.897551-201.286205z m0 0" fill="#9e9e9e" p-id="3834"></path></svg>