<?xml version="1.0" standalone="no"?><!DOCTYPE svg PUBLIC "-//W3C//DTD SVG 1.1//EN" "http://www.w3.org/Graphics/SVG/1.1/DTD/svg11.dtd"><svg t="1513008304275" class="icon" style="" viewBox="0 0 1024 1024" version="1.1" xmlns="http://www.w3.org/2000/svg" p-id="1886" xmlns:xlink="http://www.w3.org/1999/xlink" width="48" height="48"><defs><style type="text/css"></style></defs><path d="M745.43661 443.586864c-12.352329 0-24.442692 1.076518-36.216853 3.045359-29.393447-96.063893-120.42779-166.083619-228.239238-166.083619-131.588991 0-238.247172 104.278995-238.247172 232.917794 0 11.477402 0.8913 22.763446 2.536776 33.81106-6.315846-0.726547-12.7023-1.216711-19.210527-1.216711-89.476871 0-162.015977 70.91205-162.015978 158.36789 0 87.481424 72.539106 158.393473 162.015978 158.393474h223.183081V656.786571l-56.568366 21.549805c-11.347442 4.322445-21.447475-8.636704-14.483876-18.584264l123.662461-176.662559c4.906753-7.009647 15.287171-7.009647 20.192901 0l123.662461 176.662559c6.963599 9.94756-3.137457 22.907733-14.483876 18.584264l-56.568367-21.549805v206.036563h170.782642c118.43132 0 214.416418-93.848435 214.416417-209.624275-0.002047-115.762537-95.987145-209.611995-214.418464-209.611995z" fill="#ffffff" p-id="1887"></path></svg>