<?xml version="1.0" standalone="no"?><!DOCTYPE svg PUBLIC "-//W3C//DTD SVG 1.1//EN" "http://www.w3.org/Graphics/SVG/1.1/DTD/svg11.dtd"><svg t="1511515139204" class="icon" style="" viewBox="0 0 1024 1024" version="1.1" xmlns="http://www.w3.org/2000/svg" p-id="7877" xmlns:xlink="http://www.w3.org/1999/xlink" width="48" height="48"><defs><style type="text/css"></style></defs><path d="M684.8 512c0-96-76.8-172.8-172.8-172.8S339.2 416 339.2 512c0 64 38.4 121.6 89.6 147.2-102.4 19.2-198.4 70.4-262.4 147.2C249.6 902.4 371.2 960 512 960s262.4-57.6 345.6-153.6c-64-76.8-160-128-262.4-147.2 51.2-25.6 89.6-83.2 89.6-147.2z" fill="#9e9e9e" p-id="7878"></path><path d="M947.2 428.8c-44.8-204.8-224-358.4-435.2-358.4S121.6 217.6 76.8 422.4c0 32-6.4 57.6-6.4 89.6 0 25.6 19.2 44.8 44.8 44.8 25.6 0 44.8-19.2 44.8-44.8 0-25.6 0-44.8 6.4-70.4 32-166.4 172.8-288 345.6-288s313.6 121.6 352 288c6.4 25.6 6.4 44.8 6.4 70.4 0 25.6 19.2 44.8 44.8 44.8 25.6 0 44.8-19.2 44.8-44.8-6.4-32-12.8-57.6-12.8-83.2z" fill="#9e9e9e" p-id="7879"></path></svg>