<?xml version="1.0" standalone="no"?><!DOCTYPE svg PUBLIC "-//W3C//DTD SVG 1.1//EN" "http://www.w3.org/Graphics/SVG/1.1/DTD/svg11.dtd"><svg t="1511941633077" class="icon" style="" viewBox="0 0 1024 1024" version="1.1" xmlns="http://www.w3.org/2000/svg" p-id="1867" xmlns:xlink="http://www.w3.org/1999/xlink" width="128" height="128"><defs><style type="text/css"></style></defs><path d="M844.121 749.204c28.116-26.567 45.668-64.215 45.668-105.971 0-80.478-65.18-145.715-145.587-145.715-12.586 0-24.799 1.599-36.447 4.605-41.122-32.047-88.096-56.913-139.064-72.673 62.793-41.764 104.19-113.193 104.19-194.307 0-128.76-104.291-233.144-232.939-233.144S207.002 106.382 207.002 235.142c0 81.089 41.371 152.5 104.132 194.269C132.79 484.424 3.181 650.672 3.181 847.23c0 62.178 13.165 121.218 36.546 174.773l64.576 0C77.048 969.679 61.416 910.318 61.416 847.23c0-209.238 169.47-378.859 378.526-378.859 77.725 0 149.802 23.669 209.87 63.931-31.325 26.727-51.197 66.503-51.197 110.931 0 41.755 17.552 79.403 45.668 105.97-103.384 40.103-176.696 140.593-176.696 258.228 0 4.924 0.483 9.719 0.736 14.571l58.233 0c-0.32-4.838-0.734-9.648-0.734-14.571 0-119.538 95.882-216.648 214.867-218.528 1.168 0.028 2.338 0.044 3.513 0.044 1.174 0 2.344-0.017 3.511-0.044 118.986 1.88 214.869 98.991 214.869 218.528 0 4.924-0.414 9.733-0.734 14.571l58.231 0c0.256-4.852 0.739-9.648 0.739-14.571C1020.818 889.796 947.505 789.307 844.121 749.204zM265.237 235.142c0-96.572 78.217-174.858 174.704-174.858 96.485 0 174.704 78.286 174.704 174.858S536.426 410 439.941 410C343.454 410 265.237 331.714 265.237 235.142zM656.85 643.232c0-48.282 39.11-87.429 87.352-87.429 48.243 0 87.352 39.147 87.352 87.429 0 47.324-37.571 85.864-84.489 87.377-0.956-0.01-1.907-0.036-2.865-0.036-0.957 0-1.908 0.027-2.862 0.036C694.422 729.096 656.85 690.554 656.85 643.232z" p-id="1868"></path></svg>