<?xml version="1.0" standalone="no"?><!DOCTYPE svg PUBLIC "-//W3C//DTD SVG 1.1//EN" "http://www.w3.org/Graphics/SVG/1.1/DTD/svg11.dtd"><svg t="1511531922831" class="icon" style="" viewBox="0 0 1024 1024" version="1.1" xmlns="http://www.w3.org/2000/svg" p-id="2696" xmlns:xlink="http://www.w3.org/1999/xlink" width="48" height="48"><defs><style type="text/css"></style></defs><path d="M783.536 352C775.248 209.232 656.848 96 512 96c-144.848 0-263.264 113.232-271.536 256l64.144 0c8.16-107.392 97.904-192 207.392-192 109.504 0 199.216 84.608 207.392 192L783.536 352z" p-id="2697" fill="#9e9e9e"></path><path d="M752.096 400 271.92 400C236.512 400 208 428.672 208 464.032l0 335.936C208 835.328 236.624 864 271.92 864l480.176 0C787.504 864 816 835.344 816 799.968L816 464.032C816 428.672 787.376 400 752.096 400zM576 720.064C576 755.376 547.28 784 512 784c-35.344 0-64-28.624-64-63.936l0-128.128C448 556.624 476.72 528 512 528c35.344 0 64 28.624 64 63.936L576 720.064z" p-id="2698" fill="#9e9e9e"></path></svg>